<svg width="63" height="31" viewBox="0 0 63 31" fill="none" xmlns="http://www.w3.org/2000/svg">
<path d="M37.5568 30.2745C37.5331 30.2582 37.5113 30.2319 37.4849 30.2283C37.4286 30.2192 37.3694 30.2229 37.3121 30.2174C36.0507 30.115 36.4891 30.1521 35.9252 30.037C35.5506 29.9599 35.6897 30.0116 35.1295 29.852C34.2846 29.6118 34.2573 29.5964 33.5843 29.2736C32.0701 28.5483 30.6814 27.1194 30.0939 25.9508C29.9466 25.6589 30.063 25.3161 30.4022 25.2391C30.5859 25.1974 30.7614 25.1221 30.9433 25.0695C31.1825 24.9997 31.2043 25.0061 31.7173 24.861C33.0178 24.4929 32.4821 24.6307 33.1151 24.4412C33.287 24.3896 33.4634 24.3515 33.6353 24.3007C34.3583 24.0895 34.6056 23.9118 34.9067 24.2128C35.9034 25.2092 36.3763 25.7767 38.0843 25.8819C38.177 25.8873 38.2689 25.9245 38.3607 25.9209C39.5157 25.8746 39.3029 25.8066 39.8931 25.6969C40.1441 25.6507 40.3733 25.5528 40.5961 25.4404C41.2782 25.0958 41.5338 24.8782 41.8139 24.5537C42.1995 24.1058 42.2541 23.8528 42.465 23.2418C42.466 23.239 42.5314 22.8048 42.5369 22.608C42.5433 22.395 42.5496 21.5654 42.5314 21.3514C42.3368 21.4965 41.4838 22.2853 40.1187 22.6797C38.8909 23.0341 38.2752 23.016 37.0266 22.9816C36.4072 22.9643 35.3605 22.7168 34.5684 22.3233C33.9554 22.0187 33.799 21.9344 33.1778 21.4793C32.2193 20.7766 31.2916 19.5218 30.9242 18.6188C30.5222 17.6324 30.7414 18.3759 30.3158 16.8473C30.2958 16.7765 30.2812 16.4755 30.2285 16.2643C30.1667 16.0177 30.2003 15.7638 30.1557 15.519C30.0812 15.1074 30.1057 14.6949 30.1275 14.286C30.173 13.402 30.2249 13.354 30.2912 12.9968C30.3185 12.8499 30.3367 12.7003 30.3695 12.5543C30.3949 12.4401 30.4368 12.3304 30.4704 12.218C30.5814 11.8463 30.7023 11.3938 30.9724 10.897C31.3789 10.1481 31.218 10.3358 31.8555 9.46544C32.302 8.85527 33.156 8.081 33.7198 7.76005C33.9927 7.60502 34.2582 7.43457 34.5383 7.29404C34.7621 7.18162 35.5078 6.90419 35.7088 6.84345C35.7625 6.82713 36.6301 6.64671 36.6328 6.64671C37.0766 6.62404 37.5177 6.54607 37.9651 6.5778C39.3193 6.67481 38.82 6.62857 39.4357 6.7546C39.4893 6.76548 39.9659 6.84073 40.306 6.96856C41.6847 7.48444 42.1213 7.94229 42.435 8.18436C42.4578 8.20159 42.4896 8.20703 42.5305 8.22244C42.5869 7.59414 42.3987 7.24327 42.8861 7.07826C42.9561 7.05469 47.0923 7.06829 47.095 7.06829C47.3224 7.08189 47.5143 7.28226 47.5206 7.51254C47.537 8.07828 47.5179 23.1448 47.5179 23.1484C47.517 24.3624 47.0277 25.7649 46.5548 26.4921C45.7008 27.8049 44.8005 28.5229 43.4063 29.2428C43.1899 29.3543 42.9561 29.4341 42.7279 29.5211C41.9376 29.8248 41.9212 29.7931 41.4974 29.901C41.2928 29.9527 41.0809 30.0134 41.05 30.018C40.0241 30.1685 40.4579 30.1132 39.9159 30.1984C39.8022 30.2165 39.4766 30.2147 39.2393 30.2283C39.2038 30.2301 39.1692 30.2591 39.1347 30.2754C38.6081 30.2745 38.0824 30.2745 37.5568 30.2745ZM42.536 14.8091C42.5333 14.5916 42.5369 14.3749 42.4923 14.1564C42.4523 13.9605 42.4296 13.7611 42.3605 13.5716C42.2868 13.3712 42.2359 13.16 42.1431 12.9687C41.8257 12.3096 41.2555 11.6958 40.7553 11.3821C40.3415 11.1219 40.0832 11.0049 39.6021 10.9025C39.4202 10.8635 39.2383 10.8091 39.0546 10.7964C38.1534 10.7347 37.1548 10.9614 36.4163 11.5833C35.1968 12.6087 35.1459 13.7312 35.0849 13.8953C34.994 14.14 35.0404 14.3984 34.9922 14.6496C34.9594 14.8218 34.9803 15.0068 35.0194 15.1899C35.0595 15.3794 35.0276 15.5816 35.0922 15.7738C35.1631 15.986 35.074 16.0268 35.4187 16.7738C35.5487 17.0549 35.7133 17.3169 35.9216 17.5463C36.5182 18.2045 37.0702 18.549 37.9488 18.7267C38.1952 18.7766 38.4444 18.7829 38.6909 18.8128C38.8473 18.831 39.011 18.7911 39.171 18.7721C39.8559 18.6877 39.7031 18.6732 40.136 18.5264C40.808 18.2988 41.6302 17.6297 42.0722 16.7657C42.4123 16.102 42.3277 16.0748 42.4287 15.7783C42.4941 15.5861 42.5051 15.384 42.5333 15.1863C42.5505 15.063 42.536 14.9352 42.536 14.8091Z" fill="#111827"/>
<path d="M16.6571 14.3866C16.5944 14.2923 16.6326 14.3204 14.8537 14.3204C13.7706 14.3204 12.6874 14.3186 11.6052 14.3222C11.4233 14.3231 11.2678 14.2841 11.1686 14.1209C11.1013 14.0103 11.0659 13.8888 11.0659 13.7583C11.0677 10.3801 11.0622 10.6412 11.0677 10.5524C11.0786 10.3693 11.1277 10.1997 11.2932 10.0909C11.4642 9.9794 10.773 10.0238 21.5208 10.0166C21.7173 10.0166 21.9001 10.0356 21.9965 10.2296C22.192 10.624 22.1847 11.9713 22.1784 12.3775C22.1738 12.6658 22.1938 12.9577 22.1511 13.2397C22.1156 13.469 22.1402 13.7084 22.0501 13.9287C22.0292 13.9795 22.0747 14.0729 21.9255 14.596C21.9037 14.6731 21.6782 16.2044 20.4604 18.0403C19.5246 19.4519 18.3532 20.5743 16.7399 21.5082C15.624 22.1546 14.8737 22.3894 13.6287 22.7167C13.2704 22.811 13.0266 22.8083 12.7547 22.8618C12.4973 22.9126 12.2327 22.8971 11.9771 22.9389C11.507 23.0159 11.0368 22.9733 10.5675 22.9751C10.2719 22.976 9.97455 22.9425 9.67989 22.9089C8.94961 22.8264 8.57037 22.7013 8.22387 22.6152C7.74368 22.4955 7.85373 22.5644 6.86698 22.1818C6.64417 22.0948 6.41863 22.0114 6.20309 21.9071C5.82931 21.7258 5.46189 21.5327 5.11085 21.3078C3.0164 19.9678 1.63041 18.4211 0.603651 15.8444C0.533624 15.6685 0.222594 14.538 0.221685 14.5343C0.119827 14.14 0.13165 13.8435 0.0716269 13.5062C-0.0302307 12.9414 0.0170603 12.372 0.00705648 11.8045C0.00250927 11.5642 -0.0156796 11.3158 0.0334303 11.0846C0.0807213 10.8616 0.0361587 10.6267 0.13165 10.4137C0.147111 10.3783 0.124375 10.1888 0.260791 9.71648C0.29535 9.59862 0.304444 9.4735 0.337184 9.35473C0.397207 9.13805 0.561816 8.62852 0.644576 8.40911C0.81646 7.95307 0.904676 7.58317 1.77047 6.20236C2.76358 4.61756 4.82801 2.93847 6.46592 2.29476C6.76421 2.1778 7.05797 2.04816 7.35808 1.93573C7.51541 1.8768 7.68275 1.84235 7.84463 1.79611C8.56218 1.59302 8.45669 1.57761 10.1746 1.36909C10.3574 1.34733 11.7398 1.36183 11.9244 1.36637C12.1636 1.37181 12.4028 1.40626 12.641 1.43164C12.9803 1.46791 13.2267 1.53863 13.5077 1.59846C15.1238 1.93845 16.3988 2.47337 17.8749 3.53957C18.5197 4.00558 19.0799 4.56316 19.6155 5.14432C19.8174 5.36282 19.9848 5.61395 20.1603 5.85512C20.2976 6.0437 20.4531 6.22593 20.5486 6.43537C20.6896 6.74453 20.5786 7.0555 20.2021 7.14345C19.9402 7.2051 18.8971 7.54146 18.5379 7.63666C17.1919 7.99115 19.0508 7.48162 16.3979 8.25589C16.1897 8.31663 15.8932 8.44538 15.6158 8.10357C15.3794 7.81164 15.1202 7.54418 14.8164 7.32024C14.6618 7.20601 14.5127 7.0818 14.3499 6.98025C13.8642 6.67925 13.4132 6.4399 12.8529 6.27489C12.6319 6.21052 12.4091 6.14434 12.1736 6.1262C11.9471 6.10898 11.7243 6.04823 11.4979 6.02738C11.1032 5.99021 10.502 6.02919 10.151 6.08631C9.91362 6.1253 9.68262 6.19873 9.44798 6.25313C7.98378 6.58768 6.42408 7.83974 5.75655 9.37286C5.38277 10.2324 5.45553 10.0628 5.31638 10.6567C5.29819 10.7355 5.2027 11.1598 5.19997 11.1843C5.14541 11.6667 5.10175 12.1517 5.14995 12.6358C5.16723 12.8054 5.17451 12.9776 5.20361 13.1445C5.24999 13.4101 5.43006 14.1073 5.50646 14.3186C5.63833 14.6794 5.75928 15.0656 6.28403 15.8453C6.79786 16.6096 7.85918 17.5426 9.06238 17.9605C9.8063 18.2189 10.06 18.2135 10.4074 18.2824C10.8176 18.364 11.6888 18.3531 12.1627 18.2162C12.2618 18.1872 13.375 18.0503 14.5836 17.1781C15.2111 16.7257 15.9369 15.9315 16.3006 15.1744C16.3707 15.0285 16.4489 14.8861 16.5162 14.7392C16.5698 14.625 16.6108 14.5062 16.6571 14.3866Z" fill="#111827"/>
<path d="M55.9237 22.9777C54.7942 22.9777 54.1985 23.0547 52.3187 22.4745C52.1914 22.4355 52.0668 22.3883 51.9431 22.3376C50.6617 21.8063 50.1015 21.3212 49.6222 20.7618C49.2484 20.3257 49.0947 19.9703 48.871 19.4517C48.7791 19.2378 48.8546 18.9495 49.0456 18.8135C49.1948 18.7074 49.4085 18.6875 49.7886 18.5787C49.966 18.5279 50.1397 18.4662 50.3161 18.4137C50.4662 18.3692 50.679 18.3275 50.8827 18.2641C51.1264 18.187 51.3683 18.1045 51.6139 18.0329C51.8012 17.9785 51.994 17.9413 52.1823 17.8878C52.7652 17.7228 53.3573 17.3901 53.5928 17.944C53.7247 18.2541 53.902 18.5279 54.1858 18.7373C54.8497 19.226 55.5945 19.3384 56.4266 19.333C56.5867 19.3321 57.0742 19.2369 57.2761 19.1725C57.5116 19.0963 57.7135 18.974 57.8963 18.8225C58.0409 18.7038 58.1491 18.5451 58.1937 18.3547C58.211 18.2795 58.2473 18.2042 58.2455 18.1299C58.2382 17.886 58.1491 17.6757 57.9691 17.5034C57.6553 17.2015 57.3388 17.1416 56.7549 16.9667C56.7167 16.9549 56.413 16.9213 56.2011 16.8805C56.0492 16.8515 55.901 16.8062 55.75 16.7754C55.6027 16.7454 55.4535 16.7264 55.3053 16.6974C55.0998 16.6566 54.7787 16.5822 54.7614 16.5795C53.9511 16.4544 54.3386 16.5106 53.852 16.4C53.46 16.3112 53.2454 16.3021 53.0435 16.2531C52.8553 16.2069 52.2987 16.0401 51.7357 15.818C51.1628 15.5913 50.4398 15.1307 49.8987 14.5006C49.4112 13.9331 49.0165 13.0201 49.0292 12.1443C49.0492 10.8034 49.0283 11.1651 49.1547 10.6275C49.5167 9.09435 50.6262 7.95471 52.0377 7.31916C52.9753 6.89666 53.2554 6.87128 54.2485 6.68633C54.4732 6.64462 54.6987 6.66457 54.9179 6.62377C55.3289 6.54761 55.7418 6.58025 56.1538 6.5866C57.1651 6.60201 57.7662 6.76883 57.9854 6.81869C57.9891 6.8196 58.6602 6.97373 58.8076 7.0245C60.3318 7.54672 61.786 8.52226 62.4217 10.0055C62.5317 10.263 62.6145 10.3247 62.4362 10.6021C62.3744 10.6991 62.2871 10.7689 62.1598 10.8015C61.9115 10.8641 61.6723 10.9575 61.4267 11.03C61.2394 11.0844 61.0466 11.1207 60.8593 11.1742C60.5482 11.2639 60.611 11.283 59.4614 11.5976C59.2732 11.6492 59.0777 11.6783 58.8958 11.7444C58.7584 11.7943 58.6248 11.8061 58.4838 11.8016C58.3119 11.7961 58.1973 11.691 58.14 11.5577C57.8699 10.9348 57.3306 10.4933 56.8695 10.3428C56.5467 10.2376 56.3821 10.1714 56.3457 10.1678C56.0083 10.137 55.6718 10.0572 55.3326 10.1143C55.0416 10.1633 54.7396 10.1832 54.4795 10.3473C54.2522 10.4906 54.0721 10.6737 53.9593 10.9239C53.8656 11.1307 53.872 11.3473 53.9138 11.5513C53.9711 11.8333 54.1667 12.0391 54.4231 12.1669C54.8988 12.4045 54.9306 12.3156 56.8704 12.7417C57.016 12.7735 57.1587 12.8197 57.3043 12.8496C57.4561 12.8814 57.6116 12.8977 57.7635 12.9276C57.9691 12.9684 58.1182 13.0119 58.2764 13.0446C58.4829 13.0872 59.1322 13.2159 59.4524 13.3093C60.842 13.7164 62.1416 14.6348 62.6754 15.9648C63.0628 16.9313 62.9946 17.4245 62.9955 18.2024C62.9955 18.5079 62.9501 18.7772 62.8709 19.0583C62.7873 19.3566 62.7773 19.5887 62.4562 20.1535C62.2125 20.5832 61.9133 20.9695 61.5359 21.2931C61.2349 21.5506 60.9156 21.7836 60.5673 21.9704C60.2045 22.1653 59.6006 22.44 59.114 22.5932C59.0358 22.6177 58.0809 22.8462 58.0773 22.8462C56.9459 22.9867 57.2069 22.9894 55.9228 22.9894C55.9237 22.9867 55.9237 22.9822 55.9237 22.9777Z" fill="#111827"/>
<path d="M28.6622 21.9463C28.6622 22.105 28.624 22.2455 28.5295 22.3616C28.3476 22.5837 28.1393 22.5384 27.6646 22.5384C26.5187 22.5384 25.3719 22.5393 24.226 22.5375C23.9941 22.5375 23.8058 22.4559 23.7122 22.2256C23.6512 22.0769 23.6922 23.0842 23.6758 8.46829C23.6758 8.25705 23.7558 8.1138 23.9213 8.00682C23.9704 7.97509 23.9877 7.97418 24.4743 7.83093C24.8899 7.70853 24.9745 7.67046 25.2209 7.59793C25.3983 7.54625 25.5792 7.50545 25.7566 7.45377C26.0549 7.36673 26.2313 7.29239 27.1999 7.02493C27.4572 6.95421 27.7219 6.90526 27.972 6.81369C28.1493 6.74931 28.2848 6.77923 28.4349 6.8708C28.5822 6.96147 28.6259 7.10109 28.6577 7.25159C28.6641 7.2797 28.655 17.6226 28.6622 21.9463Z" fill="#111827"/>
<path d="M23.6759 2.37957C23.6722 2.16379 23.8095 1.97521 24.006 1.919C25.5429 1.47837 24.6008 1.72135 25.7148 1.41944C27.3618 0.973379 27.7683 0.813811 28.0139 0.743093C28.2876 0.664216 28.6587 0.83285 28.6578 1.34419C28.656 2.32336 28.6569 3.30162 28.6569 4.28079C28.6569 4.44761 28.6068 4.59357 28.4759 4.70237C28.3104 4.84018 28.284 4.80029 27.7893 4.94535C27.6083 4.99884 27.43 5.0623 27.249 5.1158C27.0763 5.16657 26.9007 5.20646 26.7288 5.25633C26.7252 5.25723 25.4229 5.6489 25.0809 5.745C24.8927 5.79759 24.6972 5.82841 24.5134 5.89278C24.3661 5.94446 24.2224 5.96713 24.0705 5.95443C23.865 5.93721 23.6804 5.74228 23.6795 5.53557C23.6749 4.54008 23.684 2.90089 23.6759 2.37957Z" fill="#111827"/>
</svg>
